<svg xmlns="http://www.w3.org/2000/svg" version="1.1" xmlns:xlink="http://www.w3.org/1999/xlink" xmlns:svgjs="http://svgjs.dev/svgjs" width="1500" height="261" viewBox="0 0 1500 261"><g transform="matrix(1,0,0,1,-0.9090909090909918,-0.48983518703846585)"><svg viewBox="0 0 396 69" data-background-color="#040046" preserveAspectRatio="xMidYMid meet" height="261" width="1500" xmlns="http://www.w3.org/2000/svg" xmlns:xlink="http://www.w3.org/1999/xlink"><g id="tight-bounds" transform="matrix(1,0,0,1,0.2400000000000091,0.1294966586423527)"><svg viewBox="0 0 395.52 68.74100668271531" height="68.74100668271531" width="395.52"><g><svg viewBox="0 0 504.89352422597256 87.75002306552707" height="68.74100668271531" width="395.52"><g transform="matrix(1,0,0,1,0,6.525040022792027)"><svg viewBox="0 0 395.52 74.69994301994302" height="74.69994301994302" width="395.52"><g id="textblocktransform"><svg viewBox="0 0 395.52 74.69994301994302" height="74.69994301994302" width="395.52" id="textblock"><g><svg viewBox="0 0 395.52 74.69994301994302" height="74.69994301994302" width="395.52"><g transform="matrix(1,0,0,1,0,0)"><svg width="395.52" viewBox="4.96 -38.35 205.64 38.84" height="74.69994301994302" data-palette-color="url(#eb4e77f9-d691-4801-adef-925727c5fc65)"></svg></g></svg></g></svg></g></svg></g><g transform="matrix(1,0,0,1,413.15486374837604,0)"><svg viewBox="0 0 91.73866047759648 87.75002306552707" height="87.75002306552707" width="91.73866047759648"><g><svg xmlns="http://www.w3.org/2000/svg" xmlns:xlink="http://www.w3.org/1999/xlink" version="1.1" x="0" y="0" viewBox="26 36 460 440" style="enable-background:new 0 0 512 512;" xml:space="preserve" height="87.75002306552707" width="91.73866047759648" class="icon-icon-0" data-fill-palette-color="accent" id="icon-0"></svg></g></svg></g></svg></g><defs></defs><mask id="9119df29-8e77-494f-b393-0ed2432f923c"><g id="SvgjsG12166"><svg viewBox="0 0 395.52 68.74100668271531" height="68.74100668271531" width="395.52"><g><svg viewBox="0 0 504.89352422597256 87.75002306552707" height="68.74100668271531" width="395.52"><g transform="matrix(1,0,0,1,0,6.525040022792027)"><svg viewBox="0 0 395.52 74.69994301994302" height="74.69994301994302" width="395.52"><g id="SvgjsG12165"><svg viewBox="0 0 395.52 74.69994301994302" height="74.69994301994302" width="395.52" id="SvgjsSvg12164"><g><svg viewBox="0 0 395.52 74.69994301994302" height="74.69994301994302" width="395.52"><g transform="matrix(1,0,0,1,0,0)"><svg width="395.52" viewBox="4.96 -38.35 205.64 38.84" height="74.69994301994302" data-palette-color="url(#eb4e77f9-d691-4801-adef-925727c5fc65)"><path d="M13.6 0.22L13.6 0.22Q11.69 0.22 9.53 0.11 7.37 0 4.96-0.2L4.96-0.2 4.96-35.01Q6.47-35.21 7.86-35.34 9.25-35.47 10.53-35.57 11.82-35.67 12.98-35.71 14.14-35.74 15.19-35.74L15.19-35.74Q20.07-35.74 22.88-34.91 25.68-34.08 27-32.74 28.32-31.4 28.69-29.83 29.05-28.27 29.05-26.81L29.05-26.81Q29.05-25.2 28.48-23.75 27.91-22.31 26.59-21.17 25.27-20.02 23-19.29L23-19.29Q26.93-18.33 28.63-16.09 30.32-13.84 30.32-10.55L30.32-10.55Q30.32-7.69 29.38-5.65 28.44-3.61 26.44-2.31 24.44-1 21.26-0.39 18.09 0.22 13.6 0.22ZM14.4-3.3L14.4-3.3Q18.29-3.3 20.56-3.85 22.83-4.39 23.9-5.37 24.98-6.35 25.29-7.64 25.61-8.94 25.61-10.42L25.61-10.42Q25.61-12.96 24.61-14.53 23.61-16.09 21.5-16.8 19.38-17.5 16.04-17.5L16.04-17.5 9.69-17.5 9.69-3.49Q10.99-3.39 12.17-3.34 13.35-3.3 14.4-3.3ZM9.69-32.08L9.69-20.78 16.31-20.78Q18.58-20.78 20.48-21.2 22.39-21.63 23.54-22.86 24.68-24.1 24.68-26.49L24.68-26.49Q24.68-28.47 23.83-29.77 22.97-31.08 20.96-31.74 18.95-32.4 15.41-32.4L15.41-32.4Q14.18-32.4 12.74-32.32 11.3-32.25 9.69-32.08L9.69-32.08ZM48.36 0.49L48.36 0.49Q44.53 0.49 41.86-1.23 39.18-2.95 37.79-6.04 36.4-9.13 36.4-13.23L36.4-13.23Q36.4-17.43 37.77-20.52 39.13-23.61 41.81-25.31 44.48-27 48.36-27L48.36-27Q52.24-27 54.9-25.31 57.57-23.61 58.93-20.52 60.3-17.43 60.3-13.23L60.3-13.23Q60.3-9.13 58.91-6.04 57.52-2.95 54.86-1.23 52.19 0.49 48.36 0.49ZM48.36-2.81L48.36-2.81Q50.95-2.81 52.57-4.16 54.2-5.52 54.97-7.86 55.73-10.21 55.73-13.21L55.73-13.21Q55.73-16.28 54.97-18.64 54.2-21 52.56-22.34 50.93-23.68 48.36-23.68L48.36-23.68Q44.5-23.68 42.73-20.75 40.96-17.82 40.96-13.21L40.96-13.21Q40.96-10.21 41.73-7.86 42.5-5.52 44.14-4.16 45.77-2.81 48.36-2.81ZM78.02 0.49L78.02 0.49Q74.19 0.49 71.52-1.23 68.84-2.95 67.45-6.04 66.06-9.13 66.06-13.23L66.06-13.23Q66.06-17.43 67.43-20.52 68.79-23.61 71.47-25.31 74.14-27 78.02-27L78.02-27Q81.9-27 84.57-25.31 87.23-23.61 88.59-20.52 89.96-17.43 89.96-13.23L89.96-13.23Q89.96-9.13 88.57-6.04 87.18-2.95 84.52-1.23 81.86 0.49 78.02 0.49ZM78.02-2.81L78.02-2.81Q80.61-2.81 82.23-4.16 83.86-5.52 84.63-7.86 85.4-10.21 85.4-13.21L85.4-13.21Q85.4-16.28 84.63-18.64 83.86-21 82.22-22.34 80.59-23.68 78.02-23.68L78.02-23.68Q74.16-23.68 72.39-20.75 70.62-17.82 70.62-13.21L70.62-13.21Q70.62-10.21 71.39-7.86 72.16-5.52 73.8-4.16 75.43-2.81 78.02-2.81ZM101.36 0L96.92 0 96.92-37.6 101.36-38.09 101.36-18.68 101.21-13.48 113.27-26.42 118.3-26.42 118.3-25.85 107.46-14.43 119.08-0.61 119.08 0 114.32 0 104.31-12.3 101.36-9.77 101.36 0ZM133.24 0.22L133.24 0.22Q131.34 0.22 129.18 0.11 127.02 0 124.6-0.2L124.6-0.2 124.6-35.01Q126.11-35.21 127.5-35.34 128.9-35.47 130.18-35.57 131.46-35.67 132.62-35.71 133.78-35.74 134.83-35.74L134.83-35.74Q139.71-35.74 142.52-34.91 145.33-34.08 146.65-32.74 147.96-31.4 148.33-29.83 148.7-28.27 148.7-26.81L148.7-26.81Q148.7-25.2 148.12-23.75 147.55-22.31 146.23-21.17 144.91-20.02 142.64-19.29L142.64-19.29Q146.57-18.33 148.27-16.09 149.97-13.84 149.97-10.55L149.97-10.55Q149.97-7.69 149.03-5.65 148.09-3.61 146.08-2.31 144.08-1 140.91-0.39 137.73 0.22 133.24 0.22ZM134.05-3.3L134.05-3.3Q137.93-3.3 140.2-3.85 142.47-4.39 143.54-5.37 144.62-6.35 144.94-7.64 145.25-8.94 145.25-10.42L145.25-10.42Q145.25-12.96 144.25-14.53 143.25-16.09 141.14-16.8 139.03-17.5 135.68-17.5L135.68-17.5 129.34-17.5 129.34-3.49Q130.63-3.39 131.81-3.34 133-3.3 134.05-3.3ZM129.34-32.08L129.34-20.78 135.95-20.78Q138.22-20.78 140.13-21.2 142.03-21.63 143.18-22.86 144.33-24.1 144.33-26.49L144.33-26.49Q144.33-28.47 143.47-29.77 142.62-31.08 140.6-31.74 138.59-32.4 135.05-32.4L135.05-32.4Q133.83-32.4 132.39-32.32 130.95-32.25 129.34-32.08L129.34-32.08ZM162.07 0L157.63 0 157.63-26.42 162.07-26.42 162.07 0ZM159.85-32.47L159.85-32.47Q158.36-32.47 157.56-33.25 156.75-34.03 156.75-35.45L156.75-35.45Q156.75-36.82 157.56-37.59 158.36-38.35 159.85-38.35L159.85-38.35Q161.34-38.35 162.15-37.59 162.95-36.82 162.95-35.45L162.95-35.45Q162.95-34.03 162.15-33.25 161.34-32.47 159.85-32.47ZM180.33 0.2L180.33 0.2Q177.52 0.2 175.8-0.23 174.08-0.66 173.19-1.61 172.3-2.56 171.98-4.17 171.66-5.79 171.66-8.15L171.66-8.15 171.66-23.71 167.49-23.71 167.61-26.17 171.79-26.39 172.42-33.54 176.11-33.81 176.11-26.42 183.14-26.42 183.14-23.71 176.11-23.71 176.11-8.13Q176.11-6.05 176.34-4.98 176.57-3.91 177.48-3.5 178.38-3.1 180.33-3.03L180.33-3.03Q180.99-3 181.65-2.98 182.31-2.95 182.97-2.93L182.97-2.93 182.77 0.2Q182.16 0.2 181.55 0.2 180.94 0.2 180.33 0.2ZM200.84 0.49L200.84 0.49Q197.27 0.49 194.4-1.15 191.54-2.78 189.86-5.85 188.19-8.91 188.19-13.13L188.19-13.13Q188.19-17.53 189.83-20.63 191.46-23.73 194.22-25.37 196.98-27 200.3-27L200.3-27Q203.55-27 205.84-25.56 208.14-24.12 209.37-21.46 210.6-18.8 210.6-15.14L210.6-15.14Q210.6-14.77 210.54-14.14 210.48-13.5 210.43-12.99 210.38-12.48 210.38-12.43L210.38-12.43 192.73-12.43Q192.93-9.06 194.09-6.93 195.25-4.81 197.14-3.81 199.03-2.81 201.4-2.81L201.4-2.81Q203.67-2.81 205.28-3.45 206.89-4.1 208.53-5.03L208.53-5.03 208.84-5.03 209.87-2.12Q208.23-1 205.93-0.26 203.62 0.49 200.84 0.49ZM192.8-15.31L192.8-15.31 206.79-15.31Q206.75-19.29 205.22-21.5 203.69-23.71 200.52-23.71L200.52-23.71Q197.32-23.71 195.23-21.45 193.15-19.19 192.8-15.31Z" opacity="1" transform="matrix(1,0,0,1,0,0)" fill="white" class="wordmark-text-0" id="SvgjsPath12163"></path></svg></g></svg></g></svg></g></svg></g><g transform="matrix(1,0,0,1,413.15486374837604,0)"><svg viewBox="0 0 91.73866047759648 87.75002306552707" height="87.75002306552707" width="91.73866047759648"><g><svg xmlns="http://www.w3.org/2000/svg" xmlns:xlink="http://www.w3.org/1999/xlink" version="1.1" x="0" y="0" viewBox="26 36 460 440" style="enable-background:new 0 0 512 512;" xml:space="preserve" height="87.75002306552707" width="91.73866047759648" class="icon-icon-0" data-fill-palette-color="accent" id="SvgjsSvg12162"><g fill="black"><g fill="black"><g fill="black"><path d="M371 331C359.972 331 351 339.972 351 351S359.972 371 371 371C382.027 371 391 362.028 391 351S382.027 331 371 331" fill="black"></path><path d="M216 231C224.27 231 231 224.271 231 216S224.27 201 216 201C207.729 201 201 207.729 201 216S207.729 231 216 231" fill="black"></path><path d="M236 321C216.701 321 201 336.701 201 356S216.701 391 236 391 271 375.299 271 356 255.299 321 236 321" fill="black"></path><path d="M51 411C45.485 411 41 415.486 41 421S45.485 431 51 431 61 426.514 61 421 56.514 411 51 411" fill="black"></path><path d="M106 241C97.729 241 91 247.729 91 256S97.729 271 106 271 121 264.272 121 256 114.271 241 106 241" fill="black"></path><path d="M466.173 300.357C429.598 295.582 401.619 264.608 401.01 227.246A84.6 84.6 0 0 1 376 231C329.131 231 291 192.869 291 146 291 125.008 298.789 104.862 312.65 89.359 293.77 84.641 278.526 70.123 273.11 51.123 157.1 47.14 61 140.385 61 256 61 369.037 152.962 461 266 461 362.277 461 445.586 393.768 466.173 300.357M216 191C229.785 191 241 202.215 241 216S229.785 241 216 241 191 229.785 191 216 202.215 191 216 191M106 281C92.215 281 81 269.785 81 256S92.215 231 106 231 131 242.215 131 256 119.785 281 106 281M156 326C150.477 326 146 321.522 146 316S150.477 306 156 306 166 310.478 166 316 161.523 326 156 326M156 166C150.477 166 146 161.523 146 156S150.477 146 156 146 166 150.477 166 156 161.523 166 156 166M236 401C211.186 401 191 380.814 191 356S211.186 311 236 311C260.813 311 281 331.186 281 356S260.813 401 236 401M306 416C300.478 416 296 411.522 296 406S300.478 396 306 396 316 400.478 316 406 311.523 416 306 416M316 286C310.478 286 306 281.522 306 276S310.478 266 316 266 326 270.478 326 276 321.523 286 316 286M371 381C354.457 381 341 367.542 341 351S354.457 321 371 321C387.541 321 401 334.458 401 351S387.541 381 371 381" fill="black"></path><path d="M66 91C74.271 91 81 84.271 81 76S74.271 61 66 61 51 67.729 51 76 57.729 91 66 91" fill="black"></path><path d="M426 141C439.785 141 451 129.785 451 116S439.785 91 426 91 401 102.215 401 116 412.215 141 426 141" fill="black"></path><circle cx="36" cy="136" r="10" fill="black"></circle><circle cx="336" cy="46" r="10" fill="black"></circle><circle cx="466" cy="206" r="10" fill="black"></circle><circle cx="476" cy="396" r="10" fill="black"></circle><circle cx="416" cy="456" r="10" fill="black"></circle><circle cx="116" cy="466" r="10" fill="black"></circle><circle cx="126" cy="46" r="10" fill="black"></circle></g></g></g></svg></g></svg></g></svg></g><defs><mask></mask></defs></svg><rect width="395.52" height="68.74100668271531" fill="black" stroke="none" visibility="hidden"></rect></g></mask><linearGradient x1="0" x2="1" y1="0.578" y2="0.595" id="eb4e77f9-d691-4801-adef-925727c5fc65"><stop stop-color="#6ee2f5" offset="0"></stop><stop stop-color="#6454f0" offset="1"></stop></linearGradient><rect width="395.52" height="68.74100668271531" fill="url(#eb4e77f9-d691-4801-adef-925727c5fc65)" mask="url(#9119df29-8e77-494f-b393-0ed2432f923c)" data-fill-palette-color="primary"></rect><mask id="d30b7491-f869-4d07-aef3-892305a151f8"><g id="SvgjsG12185"><svg viewBox="0 0 395.52 68.74100668271531" height="68.74100668271531" width="395.52"><g><svg viewBox="0 0 504.89352422597256 87.75002306552707" height="68.74100668271531" width="395.52"><g transform="matrix(1,0,0,1,0,6.525040022792027)"><svg viewBox="0 0 395.52 74.69994301994302" height="74.69994301994302" width="395.52"><g id="SvgjsG12184"><svg viewBox="0 0 395.52 74.69994301994302" height="74.69994301994302" width="395.52" id="SvgjsSvg12183"><g><svg viewBox="0 0 395.52 74.69994301994302" height="74.69994301994302" width="395.52"><g transform="matrix(1,0,0,1,0,0)"><svg width="395.52" viewBox="4.96 -38.35 205.64 38.84" height="74.69994301994302" data-palette-color="url(#eb4e77f9-d691-4801-adef-925727c5fc65)"></svg></g></svg></g></svg></g></svg></g><g transform="matrix(1,0,0,1,413.15486374837604,0)"><svg viewBox="0 0 91.73866047759648 87.75002306552707" height="87.75002306552707" width="91.73866047759648"><g><svg xmlns="http://www.w3.org/2000/svg" xmlns:xlink="http://www.w3.org/1999/xlink" version="1.1" x="0" y="0" viewBox="26 36 460 440" style="enable-background:new 0 0 512 512;" xml:space="preserve" height="87.75002306552707" width="91.73866047759648" class="icon-icon-0" data-fill-palette-color="accent" id="SvgjsSvg12182"><g fill="white"><g fill="white"><g fill="white"><path d="M371 331C359.972 331 351 339.972 351 351S359.972 371 371 371C382.027 371 391 362.028 391 351S382.027 331 371 331" fill="white"></path><path d="M216 231C224.27 231 231 224.271 231 216S224.27 201 216 201C207.729 201 201 207.729 201 216S207.729 231 216 231" fill="white"></path><path d="M236 321C216.701 321 201 336.701 201 356S216.701 391 236 391 271 375.299 271 356 255.299 321 236 321" fill="white"></path><path d="M51 411C45.485 411 41 415.486 41 421S45.485 431 51 431 61 426.514 61 421 56.514 411 51 411" fill="white"></path><path d="M106 241C97.729 241 91 247.729 91 256S97.729 271 106 271 121 264.272 121 256 114.271 241 106 241" fill="white"></path><path d="M466.173 300.357C429.598 295.582 401.619 264.608 401.01 227.246A84.6 84.6 0 0 1 376 231C329.131 231 291 192.869 291 146 291 125.008 298.789 104.862 312.65 89.359 293.77 84.641 278.526 70.123 273.11 51.123 157.1 47.14 61 140.385 61 256 61 369.037 152.962 461 266 461 362.277 461 445.586 393.768 466.173 300.357M216 191C229.785 191 241 202.215 241 216S229.785 241 216 241 191 229.785 191 216 202.215 191 216 191M106 281C92.215 281 81 269.785 81 256S92.215 231 106 231 131 242.215 131 256 119.785 281 106 281M156 326C150.477 326 146 321.522 146 316S150.477 306 156 306 166 310.478 166 316 161.523 326 156 326M156 166C150.477 166 146 161.523 146 156S150.477 146 156 146 166 150.477 166 156 161.523 166 156 166M236 401C211.186 401 191 380.814 191 356S211.186 311 236 311C260.813 311 281 331.186 281 356S260.813 401 236 401M306 416C300.478 416 296 411.522 296 406S300.478 396 306 396 316 400.478 316 406 311.523 416 306 416M316 286C310.478 286 306 281.522 306 276S310.478 266 316 266 326 270.478 326 276 321.523 286 316 286M371 381C354.457 381 341 367.542 341 351S354.457 321 371 321C387.541 321 401 334.458 401 351S387.541 381 371 381" fill="white"></path><path d="M66 91C74.271 91 81 84.271 81 76S74.271 61 66 61 51 67.729 51 76 57.729 91 66 91" fill="white"></path><path d="M426 141C439.785 141 451 129.785 451 116S439.785 91 426 91 401 102.215 401 116 412.215 141 426 141" fill="white"></path><circle cx="36" cy="136" r="10" fill="white"></circle><circle cx="336" cy="46" r="10" fill="white"></circle><circle cx="466" cy="206" r="10" fill="white"></circle><circle cx="476" cy="396" r="10" fill="white"></circle><circle cx="416" cy="456" r="10" fill="white"></circle><circle cx="116" cy="466" r="10" fill="white"></circle><circle cx="126" cy="46" r="10" fill="white"></circle></g></g></g></svg></g></svg></g></svg></g><defs><mask></mask></defs><mask><g id="SvgjsG12181"><svg viewBox="0 0 395.52 68.74100668271531" height="68.74100668271531" width="395.52"><g><svg viewBox="0 0 504.89352422597256 87.75002306552707" height="68.74100668271531" width="395.52"><g transform="matrix(1,0,0,1,0,6.525040022792027)"><svg viewBox="0 0 395.52 74.69994301994302" height="74.69994301994302" width="395.52"><g id="SvgjsG12180"><svg viewBox="0 0 395.52 74.69994301994302" height="74.69994301994302" width="395.52" id="SvgjsSvg12179"><g><svg viewBox="0 0 395.52 74.69994301994302" height="74.69994301994302" width="395.52"><g transform="matrix(1,0,0,1,0,0)"><svg width="395.52" viewBox="4.96 -38.35 205.64 38.84" height="74.69994301994302" data-palette-color="url(#eb4e77f9-d691-4801-adef-925727c5fc65)"><path d="M13.6 0.22L13.6 0.22Q11.69 0.22 9.53 0.11 7.37 0 4.96-0.2L4.96-0.2 4.96-35.01Q6.47-35.21 7.86-35.34 9.25-35.47 10.53-35.57 11.82-35.67 12.98-35.71 14.14-35.74 15.19-35.74L15.19-35.74Q20.07-35.74 22.88-34.91 25.68-34.08 27-32.74 28.32-31.4 28.69-29.83 29.05-28.27 29.05-26.81L29.05-26.81Q29.05-25.2 28.48-23.75 27.91-22.31 26.59-21.17 25.27-20.02 23-19.29L23-19.29Q26.93-18.33 28.63-16.09 30.32-13.84 30.32-10.55L30.32-10.55Q30.32-7.69 29.38-5.65 28.44-3.61 26.44-2.31 24.44-1 21.26-0.39 18.09 0.22 13.6 0.22ZM14.4-3.3L14.4-3.3Q18.29-3.3 20.56-3.85 22.83-4.39 23.9-5.37 24.98-6.35 25.29-7.64 25.61-8.94 25.61-10.42L25.61-10.42Q25.61-12.96 24.61-14.53 23.61-16.09 21.5-16.8 19.38-17.5 16.04-17.5L16.04-17.5 9.69-17.5 9.69-3.49Q10.99-3.39 12.17-3.34 13.35-3.3 14.4-3.3ZM9.69-32.08L9.69-20.78 16.31-20.78Q18.58-20.78 20.48-21.2 22.39-21.63 23.54-22.86 24.68-24.1 24.68-26.49L24.68-26.49Q24.68-28.47 23.83-29.77 22.97-31.08 20.96-31.74 18.95-32.4 15.41-32.4L15.41-32.4Q14.18-32.4 12.74-32.32 11.3-32.25 9.69-32.08L9.69-32.08ZM48.36 0.49L48.36 0.49Q44.53 0.49 41.86-1.23 39.18-2.95 37.79-6.04 36.4-9.13 36.4-13.23L36.4-13.23Q36.4-17.43 37.77-20.52 39.13-23.61 41.81-25.31 44.48-27 48.36-27L48.36-27Q52.24-27 54.9-25.31 57.57-23.61 58.93-20.52 60.3-17.43 60.3-13.23L60.3-13.23Q60.3-9.13 58.91-6.04 57.52-2.95 54.86-1.23 52.19 0.49 48.36 0.49ZM48.36-2.81L48.36-2.81Q50.95-2.81 52.57-4.16 54.2-5.52 54.97-7.86 55.73-10.21 55.73-13.21L55.73-13.21Q55.73-16.28 54.97-18.64 54.2-21 52.56-22.34 50.93-23.68 48.36-23.68L48.36-23.68Q44.5-23.68 42.73-20.75 40.96-17.82 40.96-13.21L40.96-13.21Q40.96-10.21 41.73-7.86 42.5-5.52 44.14-4.16 45.77-2.81 48.36-2.81ZM78.02 0.49L78.02 0.49Q74.19 0.49 71.52-1.23 68.84-2.95 67.45-6.04 66.06-9.13 66.06-13.23L66.06-13.23Q66.06-17.43 67.43-20.52 68.79-23.61 71.47-25.31 74.14-27 78.02-27L78.02-27Q81.9-27 84.57-25.31 87.23-23.61 88.59-20.52 89.96-17.43 89.96-13.23L89.96-13.23Q89.96-9.13 88.57-6.04 87.18-2.95 84.52-1.23 81.86 0.49 78.02 0.49ZM78.02-2.81L78.02-2.81Q80.61-2.81 82.23-4.16 83.86-5.52 84.63-7.86 85.4-10.21 85.4-13.21L85.4-13.21Q85.4-16.28 84.63-18.64 83.86-21 82.22-22.34 80.59-23.68 78.02-23.68L78.02-23.68Q74.16-23.68 72.39-20.75 70.62-17.82 70.62-13.21L70.62-13.21Q70.62-10.21 71.39-7.86 72.16-5.52 73.8-4.16 75.43-2.81 78.02-2.81ZM101.36 0L96.92 0 96.92-37.6 101.36-38.09 101.36-18.68 101.21-13.48 113.27-26.42 118.3-26.42 118.3-25.85 107.46-14.43 119.08-0.61 119.08 0 114.32 0 104.31-12.3 101.36-9.77 101.36 0ZM133.24 0.22L133.24 0.22Q131.34 0.22 129.18 0.11 127.02 0 124.6-0.2L124.6-0.2 124.6-35.01Q126.11-35.21 127.5-35.34 128.9-35.47 130.18-35.57 131.46-35.67 132.62-35.71 133.78-35.74 134.83-35.74L134.83-35.74Q139.71-35.74 142.52-34.91 145.33-34.08 146.65-32.74 147.96-31.4 148.33-29.83 148.7-28.27 148.7-26.81L148.7-26.81Q148.7-25.2 148.12-23.75 147.55-22.31 146.23-21.17 144.91-20.02 142.64-19.29L142.64-19.29Q146.57-18.33 148.27-16.09 149.97-13.84 149.97-10.55L149.97-10.55Q149.97-7.69 149.03-5.65 148.09-3.61 146.08-2.31 144.08-1 140.91-0.39 137.73 0.22 133.24 0.22ZM134.05-3.3L134.05-3.3Q137.93-3.3 140.2-3.85 142.47-4.39 143.54-5.37 144.62-6.35 144.94-7.64 145.25-8.94 145.25-10.42L145.25-10.42Q145.25-12.96 144.25-14.53 143.25-16.09 141.14-16.8 139.03-17.5 135.68-17.5L135.68-17.5 129.34-17.5 129.34-3.49Q130.63-3.39 131.81-3.34 133-3.3 134.05-3.3ZM129.34-32.08L129.34-20.78 135.95-20.78Q138.22-20.78 140.13-21.2 142.03-21.63 143.18-22.86 144.33-24.1 144.33-26.49L144.33-26.49Q144.33-28.47 143.47-29.77 142.62-31.08 140.6-31.74 138.59-32.4 135.05-32.4L135.05-32.4Q133.83-32.4 132.39-32.32 130.95-32.25 129.34-32.08L129.34-32.08ZM162.07 0L157.63 0 157.63-26.42 162.07-26.42 162.07 0ZM159.85-32.47L159.85-32.47Q158.36-32.47 157.56-33.25 156.75-34.03 156.75-35.45L156.75-35.45Q156.75-36.82 157.56-37.59 158.36-38.35 159.85-38.35L159.85-38.35Q161.34-38.35 162.15-37.59 162.95-36.82 162.95-35.45L162.95-35.45Q162.95-34.03 162.15-33.25 161.34-32.47 159.85-32.47ZM180.33 0.2L180.33 0.2Q177.52 0.2 175.8-0.23 174.08-0.66 173.19-1.61 172.3-2.56 171.98-4.17 171.66-5.79 171.66-8.15L171.66-8.15 171.66-23.71 167.49-23.71 167.61-26.17 171.79-26.39 172.42-33.54 176.11-33.81 176.11-26.42 183.14-26.42 183.14-23.71 176.11-23.71 176.11-8.13Q176.11-6.05 176.34-4.98 176.57-3.91 177.48-3.5 178.38-3.1 180.33-3.03L180.33-3.03Q180.99-3 181.65-2.98 182.31-2.95 182.97-2.93L182.97-2.93 182.77 0.2Q182.16 0.2 181.55 0.2 180.94 0.2 180.33 0.2ZM200.84 0.49L200.84 0.49Q197.27 0.49 194.4-1.15 191.54-2.78 189.86-5.85 188.19-8.91 188.19-13.13L188.19-13.13Q188.19-17.53 189.83-20.63 191.46-23.73 194.22-25.37 196.98-27 200.3-27L200.3-27Q203.55-27 205.84-25.56 208.14-24.12 209.37-21.46 210.6-18.8 210.6-15.14L210.6-15.14Q210.6-14.77 210.54-14.14 210.48-13.5 210.43-12.99 210.38-12.48 210.38-12.43L210.38-12.43 192.73-12.43Q192.93-9.06 194.09-6.93 195.25-4.81 197.14-3.81 199.03-2.81 201.4-2.81L201.4-2.81Q203.67-2.81 205.28-3.45 206.89-4.1 208.53-5.03L208.53-5.03 208.84-5.03 209.87-2.12Q208.23-1 205.93-0.26 203.62 0.49 200.84 0.49ZM192.8-15.31L192.8-15.31 206.79-15.31Q206.75-19.29 205.22-21.5 203.69-23.71 200.52-23.71L200.52-23.71Q197.32-23.71 195.23-21.45 193.15-19.19 192.8-15.31Z" opacity="1" transform="matrix(1,0,0,1,0,0)" fill="black" class="wordmark-text-0" id="SvgjsPath12178"></path></svg></g></svg></g></svg></g></svg></g><g transform="matrix(1,0,0,1,413.15486374837604,0)"><svg viewBox="0 0 91.73866047759648 87.75002306552707" height="87.75002306552707" width="91.73866047759648"><g><svg xmlns="http://www.w3.org/2000/svg" xmlns:xlink="http://www.w3.org/1999/xlink" version="1.1" x="0" y="0" viewBox="26 36 460 440" style="enable-background:new 0 0 512 512;" xml:space="preserve" height="87.75002306552707" width="91.73866047759648" class="icon-icon-0" data-fill-palette-color="accent" id="SvgjsSvg12177"><g fill="black"><g fill="black"><g fill="black"><path d="M371 331C359.972 331 351 339.972 351 351S359.972 371 371 371C382.027 371 391 362.028 391 351S382.027 331 371 331" fill="black"></path><path d="M216 231C224.27 231 231 224.271 231 216S224.27 201 216 201C207.729 201 201 207.729 201 216S207.729 231 216 231" fill="black"></path><path d="M236 321C216.701 321 201 336.701 201 356S216.701 391 236 391 271 375.299 271 356 255.299 321 236 321" fill="black"></path><path d="M51 411C45.485 411 41 415.486 41 421S45.485 431 51 431 61 426.514 61 421 56.514 411 51 411" fill="black"></path><path d="M106 241C97.729 241 91 247.729 91 256S97.729 271 106 271 121 264.272 121 256 114.271 241 106 241" fill="black"></path><path d="M466.173 300.357C429.598 295.582 401.619 264.608 401.01 227.246A84.6 84.6 0 0 1 376 231C329.131 231 291 192.869 291 146 291 125.008 298.789 104.862 312.65 89.359 293.77 84.641 278.526 70.123 273.11 51.123 157.1 47.14 61 140.385 61 256 61 369.037 152.962 461 266 461 362.277 461 445.586 393.768 466.173 300.357M216 191C229.785 191 241 202.215 241 216S229.785 241 216 241 191 229.785 191 216 202.215 191 216 191M106 281C92.215 281 81 269.785 81 256S92.215 231 106 231 131 242.215 131 256 119.785 281 106 281M156 326C150.477 326 146 321.522 146 316S150.477 306 156 306 166 310.478 166 316 161.523 326 156 326M156 166C150.477 166 146 161.523 146 156S150.477 146 156 146 166 150.477 166 156 161.523 166 156 166M236 401C211.186 401 191 380.814 191 356S211.186 311 236 311C260.813 311 281 331.186 281 356S260.813 401 236 401M306 416C300.478 416 296 411.522 296 406S300.478 396 306 396 316 400.478 316 406 311.523 416 306 416M316 286C310.478 286 306 281.522 306 276S310.478 266 316 266 326 270.478 326 276 321.523 286 316 286M371 381C354.457 381 341 367.542 341 351S354.457 321 371 321C387.541 321 401 334.458 401 351S387.541 381 371 381" fill="black"></path><path d="M66 91C74.271 91 81 84.271 81 76S74.271 61 66 61 51 67.729 51 76 57.729 91 66 91" fill="black"></path><path d="M426 141C439.785 141 451 129.785 451 116S439.785 91 426 91 401 102.215 401 116 412.215 141 426 141" fill="black"></path><circle cx="36" cy="136" r="10" fill="black"></circle><circle cx="336" cy="46" r="10" fill="black"></circle><circle cx="466" cy="206" r="10" fill="black"></circle><circle cx="476" cy="396" r="10" fill="black"></circle><circle cx="416" cy="456" r="10" fill="black"></circle><circle cx="116" cy="466" r="10" fill="black"></circle><circle cx="126" cy="46" r="10" fill="black"></circle></g></g></g></svg></g></svg></g></svg></g><defs><mask></mask></defs></svg><rect width="395.52" height="68.74100668271531" fill="black" stroke="none" visibility="hidden"></rect></g></mask></svg><rect width="395.52" height="68.74100668271531" fill="black" stroke="none" visibility="hidden"></rect></g></mask><linearGradient x1="0" x2="1" y1="0.578" y2="0.595" id="89e4aad9-4086-4829-a319-78acf5e708ef"><stop stop-color="#6ee2f5" offset="0"></stop><stop stop-color="#6454f0" offset="1"></stop></linearGradient><rect width="395.52" height="68.74100668271531" fill="url(#89e4aad9-4086-4829-a319-78acf5e708ef)" mask="url(#d30b7491-f869-4d07-aef3-892305a151f8)" data-fill-palette-color="accent"></rect></svg><rect width="395.52" height="68.74100668271531" fill="none" stroke="none" visibility="hidden"></rect></g></svg></g></svg>